<!-- <svg xmlns="http://www.w3.org/2000/svg" version="1.1" xmlns:xlink="http://www.w3.org/1999/xlink" xmlns:svgjs="http://svgjs.dev/svgjs" viewBox="0 0 1422 800" opacity="1"><defs><linearGradient x1="50%" y1="0%" x2="50%" y2="100%" id="oooscillate-grad"><stop stop-color="hsl(0, 0%, 50%)" stop-opacity="1" offset="0%"></stop><stop stop-color="hsl(0, 0%, 71%)" stop-opacity="1" offset="100%"></stop></linearGradient></defs><g stroke-width="1" stroke="url(#oooscillate-grad)" fill="none" stroke-linecap="round"><path d="M 0 832 Q 355.5 400 711 400 Q 1066.5 400 1422 832" stroke-dasharray="73 30" opacity="0.38"></path><path d="M 0 819 Q 355.5 400 711 400 Q 1066.5 400 1422 819" stroke-dasharray="54 24" opacity="0.97"></path><path d="M 0 806 Q 355.5 400 711 400 Q 1066.5 400 1422 806" stroke-dasharray="21 75" opacity="0.76"></path><path d="M 0 793 Q 355.5 400 711 400 Q 1066.5 400 1422 793" stroke-dasharray="81 71" opacity="0.59"></path><path d="M 0 780 Q 355.5 400 711 400 Q 1066.5 400 1422 780" stroke-dasharray="28 4" opacity="0.35"></path><path d="M 0 767 Q 355.5 400 711 400 Q 1066.5 400 1422 767" stroke-dasharray="22 28" opacity="0.27"></path><path d="M 0 754 Q 355.5 400 711 400 Q 1066.5 400 1422 754" stroke-dasharray="61 5" opacity="0.43"></path><path d="M 0 741 Q 355.5 400 711 400 Q 1066.5 400 1422 741" stroke-dasharray="70 59" opacity="0.59"></path><path d="M 0 728 Q 355.5 400 711 400 Q 1066.5 400 1422 728" stroke-dasharray="57 56" opacity="0.87"></path><path d="M 0 715 Q 355.5 400 711 400 Q 1066.5 400 1422 715" stroke-dasharray="70 74" opacity="0.36"></path><path d="M 0 702 Q 355.5 400 711 400 Q 1066.5 400 1422 702" stroke-dasharray="75 33" opacity="0.89"></path><path d="M 0 689 Q 355.5 400 711 400 Q 1066.5 400 1422 689" stroke-dasharray="55 12" opacity="0.51"></path><path d="M 0 676 Q 355.5 400 711 400 Q 1066.5 400 1422 676" stroke-dasharray="15 62" opacity="0.12"></path><path d="M 0 663 Q 355.5 400 711 400 Q 1066.5 400 1422 663" stroke-dasharray="20 75" opacity="0.16"></path><path d="M 0 650 Q 355.5 400 711 400 Q 1066.5 400 1422 650" stroke-dasharray="59 35" opacity="0.61"></path><path d="M 0 637 Q 355.5 400 711 400 Q 1066.5 400 1422 637" stroke-dasharray="29 33" opacity="0.44"></path><path d="M 0 624 Q 355.5 400 711 400 Q 1066.5 400 1422 624" stroke-dasharray="12 10" opacity="0.36"></path><path d="M 0 611 Q 355.5 400 711 400 Q 1066.5 400 1422 611" stroke-dasharray="22 66" opacity="0.92"></path><path d="M 0 598 Q 355.5 400 711 400 Q 1066.5 400 1422 598" stroke-dasharray="74 61" opacity="0.20"></path><path d="M 0 585 Q 355.5 400 711 400 Q 1066.5 400 1422 585" stroke-dasharray="10 46" opacity="0.48"></path><path d="M 0 572 Q 355.5 400 711 400 Q 1066.5 400 1422 572" stroke-dasharray="3 31" opacity="0.68"></path><path d="M 0 559 Q 355.5 400 711 400 Q 1066.5 400 1422 559" stroke-dasharray="41 31" opacity="0.75"></path><path d="M 0 546 Q 355.5 400 711 400 Q 1066.5 400 1422 546" stroke-dasharray="43 39" opacity="0.25"></path><path d="M 0 533 Q 355.5 400 711 400 Q 1066.5 400 1422 533" stroke-dasharray="17 57" opacity="0.58"></path><path d="M 0 520 Q 355.5 400 711 400 Q 1066.5 400 1422 520" stroke-dasharray="29 4" opacity="0.93"></path><path d="M 0 507 Q 355.5 400 711 400 Q 1066.5 400 1422 507" stroke-dasharray="8 30" opacity="0.54"></path><path d="M 0 494 Q 355.5 400 711 400 Q 1066.5 400 1422 494" stroke-dasharray="62 29" opacity="0.50"></path><path d="M 0 481 Q 355.5 400 711 400 Q 1066.5 400 1422 481" stroke-dasharray="53 51" opacity="0.08"></path><path d="M 0 468 Q 355.5 400 711 400 Q 1066.5 400 1422 468" stroke-dasharray="15 18" opacity="0.36"></path><path d="M 0 455 Q 355.5 400 711 400 Q 1066.5 400 1422 455" stroke-dasharray="37 77" opacity="0.35"></path><path d="M 0 442 Q 355.5 400 711 400 Q 1066.5 400 1422 442" stroke-dasharray="26 19" opacity="0.90"></path><path d="M 0 429 Q 355.5 400 711 400 Q 1066.5 400 1422 429" stroke-dasharray="10 62" opacity="0.21"></path><path d="M 0 416 Q 355.5 400 711 400 Q 1066.5 400 1422 416" stroke-dasharray="11 54" opacity="0.16"></path><path d="M 0 403 Q 355.5 400 711 400 Q 1066.5 400 1422 403" stroke-dasharray="67 76" opacity="0.19"></path><path d="M 0 390 Q 355.5 400 711 400 Q 1066.5 400 1422 390" stroke-dasharray="66 73" opacity="0.16"></path><path d="M 0 377 Q 355.5 400 711 400 Q 1066.5 400 1422 377" stroke-dasharray="55 50" opacity="0.28"></path><path d="M 0 364 Q 355.5 400 711 400 Q 1066.5 400 1422 364" stroke-dasharray="67 70" opacity="0.19"></path><path d="M 0 351 Q 355.5 400 711 400 Q 1066.5 400 1422 351" stroke-dasharray="40 25" opacity="0.84"></path><path d="M 0 338 Q 355.5 400 711 400 Q 1066.5 400 1422 338" stroke-dasharray="23 41" opacity="0.23"></path><path d="M 0 325 Q 355.5 400 711 400 Q 1066.5 400 1422 325" stroke-dasharray="14 73" opacity="0.08"></path><path d="M 0 312 Q 355.5 400 711 400 Q 1066.5 400 1422 312" stroke-dasharray="34 9" opacity="0.47"></path><path d="M 0 299 Q 355.5 400 711 400 Q 1066.5 400 1422 299" stroke-dasharray="7 18" opacity="0.84"></path><path d="M 0 286 Q 355.5 400 711 400 Q 1066.5 400 1422 286" stroke-dasharray="71 15" opacity="0.37"></path><path d="M 0 273 Q 355.5 400 711 400 Q 1066.5 400 1422 273" stroke-dasharray="74 44" opacity="0.54"></path><path d="M 0 260 Q 355.5 400 711 400 Q 1066.5 400 1422 260" stroke-dasharray="34 75" opacity="0.39"></path><path d="M 0 247 Q 355.5 400 711 400 Q 1066.5 400 1422 247" stroke-dasharray="15 73" opacity="0.14"></path><path d="M 0 234 Q 355.5 400 711 400 Q 1066.5 400 1422 234" stroke-dasharray="6 53" opacity="0.56"></path><path d="M 0 221 Q 355.5 400 711 400 Q 1066.5 400 1422 221" stroke-dasharray="1 17" opacity="0.49"></path><path d="M 0 208 Q 355.5 400 711 400 Q 1066.5 400 1422 208" stroke-dasharray="33 71" opacity="0.68"></path><path d="M 0 195 Q 355.5 400 711 400 Q 1066.5 400 1422 195" stroke-dasharray="2 24" opacity="0.94"></path><path d="M 0 182 Q 355.5 400 711 400 Q 1066.5 400 1422 182" stroke-dasharray="53 35" opacity="0.50"></path><path d="M 0 169 Q 355.5 400 711 400 Q 1066.5 400 1422 169" stroke-dasharray="65 41" opacity="0.64"></path><path d="M 0 156 Q 355.5 400 711 400 Q 1066.5 400 1422 156" stroke-dasharray="55 49" opacity="0.62"></path><path d="M 0 143 Q 355.5 400 711 400 Q 1066.5 400 1422 143" stroke-dasharray="34 21" opacity="0.64"></path><path d="M 0 130 Q 355.5 400 711 400 Q 1066.5 400 1422 130" stroke-dasharray="6 6" opacity="0.19"></path><path d="M 0 117 Q 355.5 400 711 400 Q 1066.5 400 1422 117" stroke-dasharray="71 23" opacity="0.36"></path><path d="M 0 104 Q 355.5 400 711 400 Q 1066.5 400 1422 104" stroke-dasharray="30 39" opacity="0.71"></path><path d="M 0 91 Q 355.5 400 711 400 Q 1066.5 400 1422 91" stroke-dasharray="2 64" opacity="0.61"></path><path d="M 0 78 Q 355.5 400 711 400 Q 1066.5 400 1422 78" stroke-dasharray="49 52" opacity="0.55"></path><path d="M 0 65 Q 355.5 400 711 400 Q 1066.5 400 1422 65" stroke-dasharray="63 34" opacity="0.41"></path><path d="M 0 52 Q 355.5 400 711 400 Q 1066.5 400 1422 52" stroke-dasharray="35 6" opacity="0.48"></path><path d="M 0 39 Q 355.5 400 711 400 Q 1066.5 400 1422 39" stroke-dasharray="43 52" opacity="0.31"></path><path d="M 0 26 Q 355.5 400 711 400 Q 1066.5 400 1422 26" stroke-dasharray="25 80" opacity="0.73"></path></g></svg>


 -->



 <svg xmlns="http://www.w3.org/2000/svg" version="1.1" xmlns:xlink="http://www.w3.org/1999/xlink" xmlns:svgjs="http://svgjs.dev/svgjs" width="1440" height="560" preserveAspectRatio="none" viewBox="0 0 1440 560">
    <g mask="url(&quot;#SvgjsMask1272&quot;)" fill="none">
        <path d="M -16.718657295380126,304 C 55.28,293 199.28,250.6 343.2813427046199,249 C 487.28,247.4 559.28,296.4 703.2813427046199,296 C 847.28,295.6 919.28,240 1063.2813427046199,247 C 1207.28,254 1279.28,329.8 1423.2813427046199,331 C 1567.28,332.2 1779.94,258.2 1783.2813427046199,253 C 1786.63,247.8 1508.66,294.6 1440,305" stroke="rgba(51, 121, 194, 0.58)" stroke-width="2"></path>
        <path d="M -62.873448003171916,312 C 9.13,298.6 153.13,248.2 297.1265519968281,245 C 441.13,241.8 513.13,293.4 657.1265519968281,296 C 801.13,298.6 873.13,249.6 1017.1265519968281,258 C 1161.13,266.4 1233.13,344.4 1377.126551996828,338 C 1521.13,331.6 1724.55,230 1737.126551996828,226 C 1749.7,222 1499.43,299.6 1440,318" stroke="rgba(195, 197, 196, 0.76)" stroke-width="2"></path>
        <path d="M -391.9866102565372,333 C -319.99,310 -175.99,224.8 -31.986610256537176,218 C 112.01,211.2 184.01,292.4 328.0133897434628,299 C 472.01,305.6 544.01,253.6 688.0133897434628,251 C 832.01,248.4 904.01,290 1048.0133897434628,286 C 1192.01,282 1329.62,231 1408.0133897434628,231 C 1486.41,231 1433.6,275 1440,286" stroke="rgba(195, 197, 196, 0.76)" stroke-width="2"></path>
        <path d="M -372.65899928652755,311 C -300.66,300.2 -156.66,253.6 -12.658999286527557,257 C 131.34,260.4 203.34,335.8 347.34100071347245,328 C 491.34,320.2 563.34,227.2 707.3410007134725,218 C 851.34,208.8 923.34,275 1067.3410007134723,282 C 1211.34,289 1352.81,242.8 1427.3410007134723,253 C 1501.87,263.2 1437.47,317 1440,333" stroke="rgba(51, 121, 194, 0.58)" stroke-width="2"></path>
        <path d="M -163.40130452596594,256 C -91.4,268.2 52.6,313.6 196.59869547403406,317 C 340.6,320.4 412.6,269.6 556.598695474034,273 C 700.6,276.4 772.6,341.8 916.598695474034,334 C 1060.6,326.2 1132.6,242.2 1276.598695474034,234 C 1420.6,225.8 1603.92,290.6 1636.598695474034,293 C 1669.28,295.4 1479.32,255.4 1440,246" stroke="rgba(51, 121, 194, 0.58)" stroke-width="2"></path>
        <path d="M -456.58188654200575,269 C -384.58,274.8 -240.58,298.2 -96.58188654200575,298 C 47.42,297.8 119.42,266.2 263.41811345799425,268 C 407.42,269.8 479.42,307 623.4181134579942,307 C 767.42,307 839.42,267.2 983.4181134579942,268 C 1127.42,268.8 1252.1,314.8 1343.4181134579942,311 C 1434.73,307.2 1420.68,261.4 1440,249" stroke="rgba(195, 197, 196, 0.76)" stroke-width="2"></path>
        <path d="M -400.77787449156733,327 C -328.78,314 -184.78,270.2 -40.77787449156731,262 C 103.22,253.8 175.22,285.6 319.22212550843267,286 C 463.22,286.4 535.22,258.4 679.2221255084327,264 C 823.22,269.6 895.22,314.6 1039.2221255084328,314 C 1183.22,313.4 1319.07,263.4 1399.2221255084328,261 C 1479.38,258.6 1431.84,293.8 1440,302" stroke="rgba(51, 121, 194, 0.58)" stroke-width="2"></path>
        <path d="M -87.63697476465205,312 C -15.64,295 128.36,224.8 272.36302523534795,227 C 416.36,229.2 488.36,316.6 632.363025235348,323 C 776.36,329.4 848.36,260 992.363025235348,259 C 1136.36,258 1208.36,314 1352.363025235348,318 C 1496.36,322 1694.84,282 1712.363025235348,279 C 1729.89,276 1494.47,298.2 1440,303" stroke="rgba(194, 47, 205, 0.49)" stroke-width="2"></path>
        <path d="M -165.49466157700832,341 C -93.49,320.8 50.51,247.6 194.50533842299168,240 C 338.51,232.4 410.51,302.2 554.5053384229917,303 C 698.51,303.8 770.51,237.4 914.5053384229917,244 C 1058.51,250.6 1130.51,334 1274.5053384229916,336 C 1418.51,338 1601.41,255.4 1634.5053384229916,254 C 1667.6,252.6 1478.9,314 1440,329" stroke="rgba(195, 197, 196, 0.76)" stroke-width="2"></path>
        <path d="M -267.3225434085887,236 C -195.32,248.6 -51.32,301.8 92.67745659141136,299 C 236.68,296.2 308.68,224.2 452.6774565914113,222 C 596.68,219.8 668.68,282.8 812.6774565914113,288 C 956.68,293.2 1028.68,237.8 1172.6774565914113,248 C 1316.68,258.2 1479.21,335.8 1532.6774565914113,339 C 1586.14,342.2 1458.54,279 1440,264" stroke="rgba(51, 121, 194, 0.58)" stroke-width="2"></path>
    </g>
    <defs>
        <mask id="SvgjsMask1272">
            <rect width="1440" height="560" fill="#ffffff"></rect>
        </mask>
    </defs>
</svg>