<svg xmlns="http://www.w3.org/2000/svg" version="1.1" xmlns:xlink="http://www.w3.org/1999/xlink" xmlns:svgjs="http://svgjs.dev/svgjs" width="1440" height="560" preserveAspectRatio="none" viewBox="0 0 1440 560">
    <g mask="url(&quot;#SvgjsMask1066&quot;)" fill="none">
        <path d="M43.703,331.203C86.649,331.382,135.877,329.143,157.314,291.93C178.73,254.752,158.599,209.382,134.214,174.08C113.541,144.151,80.076,127.833,43.703,127.454C6.569,127.067,-29.157,141.516,-50.138,172.157C-74.402,207.592,-90.1,254,-68.276,290.988C-46.675,327.598,1.195,331.025,43.703,331.203" fill="rgba(164, 169, 175, 0.4)" class="triangle-float3"></path>
        <path d="M341.34,429.851C397.848,430.547,444.28,387.436,469.19,336.71C491.319,291.646,481.811,239.752,455.77,196.83C430.829,155.721,389.368,128.294,341.34,125.986C288.72,123.458,232.907,139.465,206.137,184.837C179.027,230.786,193.054,286.917,218.83,333.628C245.719,382.356,285.689,429.166,341.34,429.851" fill="rgba(164, 169, 175, 0.4)" class="triangle-float2"></path>
        <path d="M1467.607,398.461C1512.208,396.706,1554.284,378.884,1578.87,341.629C1606.401,299.913,1620.15,247,1596.689,202.867C1572.021,156.464,1520.13,130.591,1467.607,132.333C1417.846,133.984,1377.634,167.956,1352.552,210.965C1327.244,254.361,1313.794,308.208,1340.069,351.026C1365.496,392.462,1419.03,400.373,1467.607,398.461" fill="rgba(164, 169, 175, 0.4)" class="triangle-float3"></path>
        <path d="M1302.526,502.844C1332.531,500.981,1354.057,476.479,1367.801,449.742C1380.215,425.591,1381.162,397.963,1368.889,373.74C1355.192,346.706,1332.83,320.572,1302.526,320.904C1272.581,321.233,1253.805,349.347,1238.638,375.169C1223.188,401.474,1207.866,431.543,1221.518,458.825C1236.258,488.281,1269.651,504.885,1302.526,502.844" fill="rgba(164, 169, 175, 0.4)" class="triangle-float3"></path>
        <path d="M19.857,358.338C46.954,357.928,73.364,345.759,86.456,322.031C99.167,298.993,93.65,271.358,80.387,248.633C67.25,226.124,45.903,206.999,19.857,207.92C-5.056,208.801,-20.793,231.331,-33.683,252.669C-47.233,275.099,-62.174,300.727,-50.33,324.103C-37.72,348.99,-8.039,358.76,19.857,358.338" fill="rgba(164, 169, 175, 0.4)" class="triangle-float2"></path>
    </g>
    <defs>
        <mask id="SvgjsMask1066">
            <rect width="1440" height="560" fill="#ffffff"></rect>
        </mask>
        <style>
            @keyframes float1 {
                    0%{transform: translate(0, 0)}
                    50%{transform: translate(-10px, 0)}
                    100%{transform: translate(0, 0)}
                }

                .triangle-float1 {
                    animation: float1 5s infinite;
                }

                @keyframes float2 {
                    0%{transform: translate(0, 0)}
                    50%{transform: translate(-5px, -5px)}
                    100%{transform: translate(0, 0)}
                }

                .triangle-float2 {
                    animation: float2 4s infinite;
                }

                @keyframes float3 {
                    0%{transform: translate(0, 0)}
                    50%{transform: translate(0, -10px)}
                    100%{transform: translate(0, 0)}
                }

                .triangle-float3 {
                    animation: float3 6s infinite;
                }
        </style>
    </defs>
</svg>