<svg width="1502" height="572" viewBox="0 0 1502 572" fill="none" xmlns="http://www.w3.org/2000/svg">
<g clip-path="url(#clip0_109_28)">
<path d="M-2858.38 422.03C-2707.98 299.838 -2557.59 -59.4079 -2256.81 -66.7394C-1956.03 -74.071 -1956.03 363.378 -1655.25 392.704C-1354.47 422.03 -1354.47 11.4637 -1053.69 50.5653C-752.906 89.6668 -752.906 556.442 -452.125 549.11C-151.344 541.779 -151.344 23.6829 149.438 21.2391C450.219 18.7952 450.219 517.34 751 539.335C1051.78 561.329 1051.78 94.5545 1352.56 109.218C1653.34 123.881 1653.34 575.993 1954.12 597.987C2254.91 619.982 2254.91 204.528 2555.69 197.196C2856.47 189.865 2856.47 578.436 3157.25 568.661C3458.03 558.886 3458.03 170.314 3758.81 158.095C4059.59 145.875 4209.98 429.362 4360.38 519.784" stroke="url(#paint0_linear_109_28)" stroke-width="3" stroke-linecap="round"/>
<path d="M-2749 417.302C-2603.17 298.812 -2457.33 -49.5469 -2165.67 -56.6563C-1874 -63.7656 -1874 360.427 -1582.33 388.865C-1290.67 417.302 -1290.67 19.1771 -999 57.0937C-707.333 95.0104 -707.333 547.641 -415.667 540.531C-124 533.422 -124 31.026 167.667 28.6562C459.333 26.2864 459.333 509.724 751 531.052C1042.67 552.38 1042.67 99.75 1334.33 113.969C1626 128.187 1626 566.599 1917.67 587.927C2209.33 609.255 2209.33 206.391 2501 199.281C2792.67 192.172 2792.67 568.969 3084.33 559.49C3376 550.01 3376 173.214 3667.67 161.365C3959.33 149.516 4105.17 424.411 4251 512.094" stroke="url(#paint1_linear_109_28)" stroke-width="3" stroke-linecap="round"/>
<path d="M-2639.62 412.574C-2498.35 297.787 -2357.07 -39.6864 -2074.52 -46.5736C-1791.97 -53.4608 -1791.97 357.476 -1509.42 385.025C-1226.86 412.574 -1226.86 26.89 -944.312 63.6217C-661.76 100.354 -661.76 538.839 -379.208 531.952C-96.6563 525.065 -96.6564 38.3686 185.896 36.0729C468.448 33.7772 468.448 502.107 751 522.769C1033.55 543.431 1033.55 104.945 1316.1 118.719C1598.66 132.494 1598.66 557.205 1881.21 577.866C2163.76 598.528 2163.76 208.253 2446.31 201.366C2728.86 194.479 2728.86 559.501 3011.42 550.318C3293.97 541.135 3293.97 176.113 3576.52 164.634C3859.07 153.155 4000.35 419.461 4141.62 504.403" stroke="url(#paint2_linear_109_28)" stroke-width="3" stroke-linecap="round"/>
<path d="M-2530.25 407.846C-2393.53 296.762 -2256.81 -29.8254 -1983.38 -36.4904C-1709.94 -43.1554 -1709.94 354.525 -1436.5 381.185C-1163.06 407.846 -1163.06 34.6034 -889.625 70.1502C-616.188 105.697 -616.188 530.038 -342.75 523.373C-69.3125 516.708 -69.3125 45.7118 204.125 43.4901C477.562 41.2684 477.562 494.491 751 514.486C1024.44 534.481 1024.44 110.14 1297.88 123.471C1571.31 136.801 1571.31 547.811 1844.75 567.807C2118.19 587.802 2118.19 210.116 2391.62 203.451C2665.06 196.786 2665.06 550.033 2938.5 541.146C3211.94 532.26 3211.94 179.013 3485.38 167.904C3758.81 156.796 3895.53 414.511 4032.25 496.713" stroke="url(#paint3_linear_109_28)" stroke-width="3" stroke-linecap="round"/>
<path d="M-2420.88 403.118C-2288.71 295.736 -2156.55 -19.9644 -1892.23 -26.4072C-1627.91 -32.8501 -1627.91 351.575 -1363.58 377.346C-1099.26 403.118 -1099.26 42.3167 -834.938 76.6787C-570.615 111.041 -570.615 521.237 -306.292 514.794C-41.9689 508.351 -41.9688 53.0549 222.354 50.9072C486.677 48.7596 486.677 486.875 751 506.203C1015.32 525.532 1015.32 115.336 1279.65 128.222C1543.97 141.107 1543.97 538.418 1808.29 557.746C2072.61 577.075 2072.61 211.979 2336.94 205.536C2601.26 199.093 2601.26 540.565 2865.58 531.975C3129.91 523.384 3129.91 181.912 3394.23 171.174C3658.55 160.436 3790.71 409.56 3922.88 489.022" stroke="url(#paint4_linear_109_28)" stroke-width="3" stroke-linecap="round"/>
<path d="M-2311.5 398.389C-2183.9 294.711 -2056.29 -10.1038 -1801.08 -16.3245C-1545.88 -22.5452 -1545.88 348.623 -1290.67 373.506C-1035.46 398.389 -1035.46 50.0297 -780.25 83.2067C-525.042 116.384 -525.042 512.435 -269.833 506.215C-14.6251 499.994 -14.6251 60.3975 240.583 58.3239C495.792 56.2504 495.792 479.258 751 497.92C1006.21 516.582 1006.21 120.531 1261.42 132.972C1516.62 145.414 1516.62 529.024 1771.83 547.686C2027.04 566.348 2027.04 213.842 2282.25 207.621C2537.46 201.4 2537.46 531.097 2792.67 522.803C3047.87 514.509 3047.87 184.812 3303.08 174.444C3558.29 164.076 3685.9 404.61 3813.5 481.332" stroke="url(#paint5_linear_109_28)" stroke-width="3" stroke-linecap="round"/>
<path d="M-2202.12 393.661C-2079.08 293.685 -1956.03 -0.24283 -1709.94 -6.24136C-1463.84 -12.2399 -1463.84 345.673 -1217.75 369.667C-971.656 393.661 -971.656 57.743 -725.562 89.7352C-479.469 121.727 -479.469 503.634 -233.375 497.636C12.7188 491.637 12.7188 67.7406 258.812 65.7411C504.906 63.7415 504.906 471.642 751 489.638C997.094 507.633 997.094 125.726 1243.19 137.723C1489.28 149.721 1489.28 519.63 1735.38 537.626C1981.47 555.621 1981.47 215.704 2227.56 209.706C2473.66 203.707 2473.66 521.63 2719.75 513.632C2965.84 505.634 2965.84 187.711 3211.94 177.714C3458.03 167.716 3581.08 399.659 3704.12 473.641" stroke="url(#paint6_linear_109_28)" stroke-width="3" stroke-linecap="round"/>
<path d="M-2092.75 388.933C-1974.26 292.66 -1855.77 9.61818 -1618.79 3.84181C-1381.81 -1.93456 -1381.81 342.722 -1144.83 365.827C-907.854 388.933 -907.854 65.4564 -670.875 96.2637C-433.896 127.071 -433.896 494.833 -196.917 489.057C40.0624 483.28 40.0624 75.0837 277.042 73.1582C514.021 71.2328 514.021 464.026 751 481.355C987.979 498.684 987.979 130.922 1224.96 142.475C1461.94 154.027 1461.94 510.237 1698.92 527.566C1935.9 544.895 1935.9 217.567 2172.88 211.791C2409.85 206.015 2409.85 512.162 2646.83 504.46C2883.81 496.758 2883.81 190.611 3120.79 180.984C3357.77 171.356 3476.26 394.709 3594.75 465.951" stroke="url(#paint7_linear_109_28)" stroke-width="3" stroke-linecap="round"/>
<path d="M-1983.38 384.204C-1869.44 291.634 -1755.51 19.4787 -1527.65 13.9245C-1299.78 8.3703 -1299.78 339.771 -1071.92 361.988C-844.052 384.204 -844.052 73.1693 -616.188 102.792C-388.323 132.414 -388.323 486.031 -160.458 480.477C67.4062 474.923 67.4061 82.4263 295.271 80.5749C523.135 78.7235 523.135 456.409 751 473.072C978.865 489.734 978.865 136.117 1206.73 147.225C1434.59 158.334 1434.59 500.843 1662.46 517.505C1890.32 534.168 1890.32 219.43 2118.19 213.876C2346.05 208.321 2346.05 502.694 2573.92 495.288C2801.78 487.883 2801.78 193.51 3029.65 184.253C3257.51 174.996 3371.44 389.759 3485.38 458.26" stroke="url(#paint8_linear_109_28)" stroke-width="3" stroke-linecap="round"/>
<path d="M-1874 379.476C-1764.62 290.609 -1655.25 29.3397 -1436.5 24.0077C-1217.75 18.6756 -1217.75 336.82 -999 358.148C-780.25 379.476 -780.25 80.8827 -561.5 109.32C-342.75 137.758 -342.75 477.23 -124 471.898C94.75 466.566 94.75 89.7694 313.5 87.9921C532.25 86.2147 532.25 448.793 751 464.789C969.75 480.785 969.75 141.312 1188.5 151.976C1407.25 162.64 1407.25 491.449 1626 507.445C1844.75 523.441 1844.75 221.293 2063.5 215.961C2282.25 210.629 2282.25 493.226 2501 486.117C2719.75 479.008 2719.75 196.41 2938.5 187.523C3157.25 178.637 3266.62 384.808 3376 450.57" stroke="url(#paint9_linear_109_28)" stroke-width="3" stroke-linecap="round"/>
<path d="M-1764.62 374.748C-1659.81 289.584 -1554.99 39.2007 -1345.35 34.0909C-1135.72 28.981 -1135.72 333.87 -926.083 354.309C-716.448 374.748 -716.448 88.5961 -506.812 115.849C-297.177 143.101 -297.177 468.429 -87.5417 463.319C122.094 458.209 122.094 97.1125 331.729 95.4092C541.365 93.7059 541.365 441.177 751 456.506C960.635 471.836 960.635 146.508 1170.27 156.728C1379.91 166.947 1379.91 482.055 1589.54 497.385C1799.18 512.715 1799.18 223.156 2008.81 218.046C2218.45 212.936 2218.45 483.759 2428.08 476.946C2637.72 470.132 2637.72 199.31 2847.35 190.793C3056.99 182.277 3161.81 379.858 3266.62 442.88" stroke="url(#paint10_linear_109_28)" stroke-width="3" stroke-linecap="round"/>
<path d="M-1655.25 370.02C-1554.99 288.558 -1454.73 49.0612 -1254.21 44.1735C-1053.69 39.2858 -1053.69 330.918 -853.167 350.469C-652.646 370.02 -652.646 96.309 -452.125 122.377C-251.604 148.444 -251.604 459.628 -51.0834 454.74C149.437 449.852 149.437 104.455 349.958 102.826C550.479 101.197 550.479 433.56 751 448.223C951.521 462.886 951.521 151.703 1152.04 161.478C1352.56 171.254 1352.56 472.662 1553.08 487.325C1753.6 501.988 1753.6 225.018 1954.12 220.131C2154.65 215.243 2154.65 474.291 2355.17 467.774C2555.69 461.257 2555.69 202.209 2756.21 194.063C2956.73 185.917 3056.99 374.908 3157.25 435.189" stroke="url(#paint11_linear_109_28)" stroke-width="3" stroke-linecap="round"/>
<path d="M-1545.88 365.292C-1450.17 287.533 -1354.47 58.9222 -1163.06 54.2567C-971.656 49.5912 -971.656 327.968 -780.25 346.63C-588.844 365.292 -588.844 104.022 -397.438 128.905C-206.031 153.788 -206.031 450.827 -14.625 446.161C176.781 441.495 176.781 111.798 368.188 110.243C559.594 108.688 559.594 425.944 751 439.94C942.406 453.937 942.406 156.898 1133.81 166.229C1325.22 175.56 1325.22 463.268 1516.62 477.265C1708.03 491.261 1708.03 226.881 1899.44 222.216C2090.84 217.55 2090.84 464.823 2282.25 458.602C2473.66 452.382 2473.66 205.109 2665.06 197.333C2856.47 189.557 2952.17 369.957 3047.88 427.499" stroke="url(#paint12_linear_109_28)" stroke-width="3" stroke-linecap="round"/>
<path d="M-1436.5 360.564C-1345.35 286.508 -1254.21 68.7833 -1071.92 64.3399C-889.625 59.8965 -889.625 325.017 -707.333 342.79C-525.042 360.564 -525.042 111.736 -342.75 135.434C-160.458 159.132 -160.458 442.025 21.8333 437.582C204.125 433.139 204.125 119.141 386.417 117.66C568.708 116.179 568.708 418.327 751 431.658C933.292 444.988 933.292 162.094 1115.58 170.981C1297.87 179.867 1297.87 453.874 1480.17 467.204C1662.46 480.535 1662.46 228.744 1844.75 224.301C2027.04 219.857 2027.04 455.355 2209.33 449.431C2391.62 443.507 2391.62 208.008 2573.92 200.603C2756.21 193.197 2847.35 365.007 2938.5 419.809" stroke="url(#paint13_linear_109_28)" stroke-width="3" stroke-linecap="round"/>
<path d="M-1327.12 355.835C-1240.54 285.482 -1153.95 78.6438 -980.771 74.4226C-807.594 70.2014 -807.594 322.066 -634.417 338.951C-461.24 355.835 -461.24 119.449 -288.062 141.962C-114.885 164.475 -114.885 433.224 58.2916 429.003C231.469 424.781 231.469 126.484 404.646 125.077C577.823 123.67 577.823 410.711 751 423.374C924.177 436.038 924.177 167.289 1097.35 175.731C1270.53 184.174 1270.53 444.48 1443.71 457.144C1616.89 469.807 1616.89 230.607 1790.06 226.385C1963.24 222.164 1963.24 445.887 2136.42 440.259C2309.59 434.631 2309.59 210.908 2482.77 203.872C2655.95 196.837 2742.54 360.057 2829.12 412.118" stroke="url(#paint14_linear_109_28)" stroke-width="3" stroke-linecap="round"/>
<path d="M-1217.75 351.107C-1135.72 284.457 -1053.69 88.5048 -889.625 84.5058C-725.562 80.5067 -725.562 319.115 -561.5 335.111C-397.438 351.107 -397.438 127.162 -233.375 148.49C-69.3125 169.818 -69.3125 424.423 94.75 420.424C258.812 416.425 258.812 133.827 422.875 132.494C586.938 131.161 586.938 403.095 751 415.092C915.062 427.089 915.062 172.484 1079.12 180.482C1243.19 188.48 1243.19 435.087 1407.25 447.084C1571.31 459.081 1571.31 232.47 1735.38 228.471C1899.44 224.472 1899.44 436.42 2063.5 431.088C2227.56 425.756 2227.56 213.808 2391.62 207.142C2555.69 200.477 2637.72 355.106 2719.75 404.428" stroke="url(#paint15_linear_109_28)" stroke-width="3" stroke-linecap="round"/>
<path d="M-1108.38 346.379C-1030.9 283.432 -953.427 98.3658 -798.479 94.5889C-643.531 90.8121 -643.531 316.164 -488.583 331.272C-333.635 346.379 -333.635 134.875 -178.688 155.019C-23.7396 175.162 -23.7396 415.622 131.208 411.845C286.156 408.068 286.156 141.17 441.104 139.911C596.052 138.652 596.052 395.478 751 406.809C905.948 418.14 905.948 177.68 1060.9 185.233C1215.84 192.787 1215.84 425.693 1370.79 437.024C1525.74 448.354 1525.74 234.333 1680.69 230.556C1835.64 226.779 1835.64 426.952 1990.58 421.916C2145.53 416.881 2145.53 216.707 2300.48 210.412C2455.43 204.118 2532.9 350.156 2610.38 396.737" stroke="url(#paint16_linear_109_28)" stroke-width="3" stroke-linecap="round"/>
<path d="M-999 341.651C-926.083 282.406 -853.167 108.226 -707.333 104.672C-561.5 101.117 -561.5 313.213 -415.667 327.432C-269.833 341.651 -269.833 142.588 -124 161.547C21.8333 180.505 21.8333 406.82 167.667 403.265C313.5 399.711 313.5 148.513 459.333 147.328C605.167 146.143 605.167 387.862 751 398.526C896.833 409.19 896.833 182.875 1042.67 189.984C1188.5 197.093 1188.5 416.299 1334.33 426.963C1480.17 437.627 1480.17 236.195 1626 232.64C1771.83 229.086 1771.83 417.484 1917.67 412.745C2063.5 408.005 2063.5 219.606 2209.33 213.682C2355.17 207.758 2428.08 345.205 2501 389.047" stroke="url(#paint17_linear_109_28)" stroke-width="3" stroke-linecap="round"/>
<path d="M-889.625 336.923C-821.266 281.381 -752.906 118.087 -616.188 114.755C-479.469 111.422 -479.469 310.263 -342.75 323.593C-206.031 336.923 -206.031 150.302 -69.3125 168.075C67.4062 185.849 67.4062 398.019 204.125 394.686C340.844 391.354 340.844 155.856 477.562 154.745C614.281 153.634 614.281 380.246 751 390.243C887.719 400.241 887.719 188.07 1024.44 194.735C1161.16 201.4 1161.16 406.906 1297.88 416.903C1434.59 426.901 1434.59 238.058 1571.31 234.726C1708.03 231.393 1708.03 408.017 1844.75 403.573C1981.47 399.13 1981.47 222.506 2118.19 216.952C2254.91 211.398 2323.27 340.255 2391.62 381.356" stroke="url(#paint18_linear_109_28)" stroke-width="3" stroke-linecap="round"/>
<path d="M-780.25 332.195C-716.448 280.356 -652.646 127.948 -525.042 124.838C-397.437 121.728 -397.438 307.312 -269.833 319.753C-142.229 332.195 -142.229 158.015 -14.625 174.604C112.979 191.192 112.979 389.218 240.583 386.108C368.187 382.997 368.187 163.199 495.792 162.162C623.396 161.125 623.396 372.629 751 381.96C878.604 391.291 878.604 193.266 1006.21 199.486C1133.81 205.707 1133.81 397.512 1261.42 406.843C1389.02 416.174 1389.02 239.921 1516.62 236.811C1644.23 233.7 1644.23 398.549 1771.83 394.402C1899.44 390.255 1899.44 225.406 2027.04 220.222C2154.65 215.038 2218.45 335.305 2282.25 373.666" stroke="url(#paint19_linear_109_28)" stroke-width="3" stroke-linecap="round"/>
<path d="M-670.875 327.466C-611.63 279.33 -552.385 137.809 -433.896 134.921C-315.406 132.032 -315.406 304.361 -196.917 315.914C-78.4271 327.466 -78.4271 165.728 40.0625 181.132C158.552 196.535 158.552 380.416 277.042 377.528C395.531 374.64 395.531 170.542 514.021 169.579C632.51 168.616 632.51 365.013 751 373.677C869.49 382.342 869.49 198.461 987.979 204.237C1106.47 210.013 1106.47 388.118 1224.96 396.783C1343.45 405.447 1343.45 241.783 1461.94 238.895C1580.43 236.007 1580.43 389.081 1698.92 385.23C1817.41 381.379 1817.41 228.305 1935.9 223.492C2054.39 218.678 2113.63 330.354 2172.88 365.975" stroke="url(#paint20_linear_109_28)" stroke-width="3" stroke-linecap="round"/>
<path d="M-561.5 322.738C-506.812 278.305 -452.125 147.67 -342.75 145.004C-233.375 142.338 -233.375 301.41 -124 312.074C-14.625 322.738 -14.625 173.441 94.75 187.66C204.125 201.879 204.125 371.615 313.5 368.949C422.875 366.283 422.875 177.885 532.25 176.996C641.625 176.107 641.625 357.396 751 365.394C860.375 373.393 860.375 203.656 969.75 208.988C1079.12 214.32 1079.12 378.725 1188.5 386.723C1297.88 394.721 1297.88 243.646 1407.25 240.98C1516.62 238.314 1516.62 379.613 1626 376.059C1735.38 372.504 1735.38 231.205 1844.75 226.762C1954.12 222.318 2008.81 325.404 2063.5 358.285" stroke="url(#paint21_linear_109_28)" stroke-width="3" stroke-linecap="round"/>
<path d="M-452.125 318.01C-401.995 277.279 -351.865 157.531 -251.604 155.087C-151.344 152.643 -151.344 298.459 -51.0834 308.235C49.1771 318.01 49.1771 181.155 149.438 194.189C249.698 207.222 249.698 362.814 349.958 360.37C450.219 357.926 450.219 185.228 550.479 184.413C650.74 183.599 650.74 349.78 751 357.112C851.26 364.443 851.26 208.852 951.521 213.739C1051.78 218.627 1051.78 369.331 1152.04 376.663C1252.3 383.994 1252.3 245.509 1352.56 243.066C1452.82 240.622 1452.82 370.146 1553.08 366.887C1653.34 363.629 1653.34 234.105 1753.6 230.032C1853.86 225.959 1903.99 320.454 1954.12 350.595" stroke="url(#paint22_linear_109_28)" stroke-width="3" stroke-linecap="round"/>
<path d="M-342.75 313.282C-297.177 276.254 -251.604 167.391 -160.458 165.17C-69.3125 162.948 -69.3125 295.508 21.8333 304.395C112.979 313.282 112.979 188.868 204.125 200.717C295.271 212.566 295.271 354.012 386.417 351.791C477.562 349.569 477.562 192.57 568.708 191.83C659.854 191.089 659.854 342.164 751 348.829C842.146 355.494 842.146 214.047 933.292 218.49C1024.44 222.933 1024.44 359.937 1115.58 366.602C1206.73 373.267 1206.73 247.372 1297.88 245.15C1389.02 242.928 1389.02 360.678 1480.17 357.715C1571.31 354.753 1571.31 237.004 1662.46 233.301C1753.6 229.598 1799.18 315.503 1844.75 342.904" stroke="url(#paint23_linear_109_28)" stroke-width="3" stroke-linecap="round"/>
<path d="M-233.375 308.554C-192.359 275.228 -151.344 177.252 -69.3125 175.253C12.7188 173.253 12.7188 292.558 94.75 300.556C176.781 308.554 176.781 196.581 258.812 207.245C340.844 217.909 340.844 345.211 422.875 343.212C504.906 341.212 504.906 199.914 586.938 199.247C668.969 198.581 668.969 334.547 751 340.546C833.031 346.544 833.031 219.242 915.062 223.241C997.094 227.24 997.094 350.543 1079.12 356.542C1161.16 362.54 1161.16 249.235 1243.19 247.235C1325.22 245.236 1325.22 351.21 1407.25 348.544C1489.28 345.878 1489.28 239.904 1571.31 236.571C1653.34 233.239 1694.36 310.553 1735.38 335.214" stroke="url(#paint24_linear_109_28)" stroke-width="3" stroke-linecap="round"/>
<path d="M-124 303.826C-87.5417 274.203 -51.0833 187.113 21.8333 185.336C94.75 183.559 94.75 289.607 167.667 296.716C240.583 303.826 240.583 204.294 313.5 213.774C386.417 223.253 386.417 336.41 459.333 334.633C532.25 332.856 532.25 207.257 605.167 206.664C678.083 206.072 678.083 326.931 751 332.263C823.917 337.595 823.917 224.438 896.833 227.992C969.75 231.547 969.75 341.15 1042.67 346.482C1115.58 351.814 1115.58 251.098 1188.5 249.32C1261.42 247.543 1261.42 341.742 1334.33 339.373C1407.25 337.003 1407.25 242.804 1480.17 239.841C1553.08 236.879 1589.54 305.603 1626 327.524" stroke="url(#paint25_linear_109_28)" stroke-width="3" stroke-linecap="round"/>
<path d="M-14.625 299.097C17.276 273.178 49.1771 196.974 112.979 195.419C176.781 193.864 176.781 286.656 240.583 292.876C304.385 299.097 304.385 212.007 368.188 220.302C431.99 228.596 431.99 327.609 495.792 326.054C559.594 324.498 559.594 214.599 623.396 214.081C687.198 213.562 687.198 319.314 751 323.98C814.802 328.646 814.802 229.633 878.604 232.743C942.406 235.853 942.406 331.756 1006.21 336.421C1070.01 341.087 1070.01 252.96 1133.81 251.405C1197.61 249.85 1197.61 332.274 1261.42 330.201C1325.22 328.127 1325.22 245.703 1389.02 243.111C1452.82 240.519 1484.72 300.652 1516.62 319.833" stroke="url(#paint26_linear_109_28)" stroke-width="3" stroke-linecap="round"/>
<path d="M94.75 294.369C122.094 272.152 149.438 206.835 204.125 205.502C258.812 204.169 258.812 283.705 313.5 289.037C368.188 294.369 368.188 219.721 422.875 226.83C477.562 233.939 477.562 318.808 532.25 317.475C586.938 316.142 586.938 221.942 641.625 221.498C696.312 221.054 696.312 311.698 751 315.697C805.688 319.696 805.688 234.828 860.375 237.494C915.062 240.16 915.062 322.362 969.75 326.361C1024.44 330.36 1024.44 254.823 1079.12 253.49C1133.81 252.157 1133.81 322.807 1188.5 321.029C1243.19 319.252 1243.19 248.603 1297.88 246.381C1352.56 244.159 1379.91 295.702 1407.25 312.143" stroke="url(#paint27_linear_109_28)" stroke-width="3" stroke-linecap="round"/>
<path d="M204.125 289.641C226.911 271.127 249.698 216.696 295.271 215.585C340.844 214.474 340.844 280.754 386.417 285.198C431.99 289.641 431.99 227.434 477.562 233.359C523.135 239.283 523.135 310.006 568.708 308.896C614.281 307.785 614.281 229.285 659.854 228.915C705.427 228.545 705.427 304.082 751 307.414C796.573 310.747 796.573 240.024 842.146 242.245C887.719 244.467 887.719 312.969 933.292 316.301C978.865 319.634 978.865 256.686 1024.44 255.575C1070.01 254.464 1070.01 313.339 1115.58 311.858C1161.16 310.377 1161.16 251.502 1206.73 249.651C1252.3 247.799 1275.09 290.752 1297.88 304.452" stroke="url(#paint28_linear_109_28)" stroke-width="3" stroke-linecap="round"/>
<path d="M313.5 284.913C331.729 270.101 349.958 226.556 386.417 225.668C422.875 224.779 422.875 277.803 459.333 281.358C495.792 284.913 495.792 235.147 532.25 239.887C568.708 244.626 568.708 301.205 605.167 300.316C641.625 299.428 641.625 236.628 678.083 236.332C714.542 236.036 714.542 296.465 751 299.131C787.458 301.797 787.458 245.219 823.917 246.996C860.375 248.773 860.375 303.575 896.833 306.241C933.292 308.907 933.292 258.549 969.75 257.66C1006.21 256.771 1006.21 303.871 1042.67 302.686C1079.13 301.501 1079.12 254.401 1115.58 252.92C1152.04 251.439 1170.27 285.801 1188.5 296.762" stroke="url(#paint29_linear_109_28)" stroke-width="3" stroke-linecap="round"/>
<path d="M422.875 280.185C436.547 269.076 450.219 236.417 477.562 235.751C504.906 235.084 504.906 274.853 532.25 277.519C559.594 280.185 559.594 242.86 586.938 246.415C614.281 249.97 614.281 292.404 641.625 291.737C668.969 291.071 668.969 243.971 696.312 243.749C723.656 243.527 723.656 288.849 751 290.849C778.344 292.848 778.344 250.414 805.688 251.747C833.031 253.08 833.031 294.181 860.375 296.181C887.719 298.18 887.719 260.412 915.062 259.745C942.406 259.079 942.406 294.403 969.75 293.515C997.094 292.626 997.094 257.301 1024.44 256.19C1051.78 255.08 1065.45 280.851 1079.12 289.071" stroke="url(#paint30_linear_109_28)" stroke-width="3" stroke-linecap="round"/>
<path d="M532.25 275.456C541.365 268.051 550.479 246.278 568.708 245.834C586.938 245.39 586.937 271.902 605.167 273.679C623.396 275.456 623.396 250.574 641.625 252.944C659.854 255.313 659.854 283.603 678.083 283.158C696.313 282.714 696.312 251.314 714.542 251.166C732.771 251.018 732.771 281.233 751 282.566C769.229 283.899 769.229 255.61 787.458 256.498C805.688 257.387 805.687 284.788 823.917 286.121C842.146 287.454 842.146 262.275 860.375 261.83C878.604 261.386 878.604 284.936 896.833 284.343C915.063 283.751 915.062 260.201 933.292 259.46C951.521 258.72 960.635 275.901 969.75 281.381" stroke="url(#paint31_linear_109_28)" stroke-width="3" stroke-linecap="round"/>
<path d="M641.625 270.728C646.182 267.025 650.74 256.139 659.854 255.917C668.969 255.695 668.969 268.951 678.083 269.839C687.198 270.728 687.198 258.287 696.312 259.472C705.427 260.656 705.427 274.801 714.542 274.579C723.656 274.357 723.656 258.657 732.771 258.583C741.885 258.509 741.885 273.616 751 274.283C760.115 274.949 760.115 260.805 769.229 261.249C778.344 261.693 778.344 275.394 787.458 276.06C796.573 276.727 796.573 264.137 805.688 263.915C814.802 263.693 814.802 275.468 823.917 275.171C833.031 274.875 833.031 263.1 842.146 262.73C851.26 262.36 855.818 270.95 860.375 273.69" stroke="url(#paint32_linear_109_28)" stroke-width="3" stroke-linecap="round"/>
</g>
<defs>
<linearGradient id="paint0_linear_109_28" x1="358079" y1="-66.8306" x2="358079" y2="66499.3" gradientUnits="userSpaceOnUse">
<stop offset="0.45" stop-color="#ADADAD"/>
<stop offset="1" stop-color="#787878"/>
</linearGradient>
<linearGradient id="paint1_linear_109_28" x1="347251" y1="-56.7446" x2="347251" y2="64492.2" gradientUnits="userSpaceOnUse">
<stop offset="0.45" stop-color="#ADADAD"/>
<stop offset="1" stop-color="#787878"/>
</linearGradient>
<linearGradient id="paint2_linear_109_28" x1="336423" y1="-46.6592" x2="336423" y2="62485.1" gradientUnits="userSpaceOnUse">
<stop offset="0.45" stop-color="#ADADAD"/>
<stop offset="1" stop-color="#787878"/>
</linearGradient>
<linearGradient id="paint3_linear_109_28" x1="325595" y1="-36.5732" x2="325595" y2="60478.1" gradientUnits="userSpaceOnUse">
<stop offset="0.45" stop-color="#ADADAD"/>
<stop offset="1" stop-color="#787878"/>
</linearGradient>
<linearGradient id="paint4_linear_109_28" x1="314767" y1="-26.4873" x2="314767" y2="58471" gradientUnits="userSpaceOnUse">
<stop offset="0.45" stop-color="#ADADAD"/>
<stop offset="1" stop-color="#787878"/>
</linearGradient>
<linearGradient id="paint5_linear_109_28" x1="303939" y1="-16.4019" x2="303939" y2="56463.9" gradientUnits="userSpaceOnUse">
<stop offset="0.45" stop-color="#ADADAD"/>
<stop offset="1" stop-color="#787878"/>
</linearGradient>
<linearGradient id="paint6_linear_109_28" x1="293110" y1="-6.31592" x2="293110" y2="54456.9" gradientUnits="userSpaceOnUse">
<stop offset="0.45" stop-color="#ADADAD"/>
<stop offset="1" stop-color="#787878"/>
</linearGradient>
<linearGradient id="paint7_linear_109_28" x1="282282" y1="3.77002" x2="282282" y2="52449.8" gradientUnits="userSpaceOnUse">
<stop offset="0.45" stop-color="#ADADAD"/>
<stop offset="1" stop-color="#787878"/>
</linearGradient>
<linearGradient id="paint8_linear_109_28" x1="271454" y1="13.8555" x2="271454" y2="50442.7" gradientUnits="userSpaceOnUse">
<stop offset="0.45" stop-color="#ADADAD"/>
<stop offset="1" stop-color="#787878"/>
</linearGradient>
<linearGradient id="paint9_linear_109_28" x1="260626" y1="23.9414" x2="260626" y2="48435.7" gradientUnits="userSpaceOnUse">
<stop offset="0.45" stop-color="#ADADAD"/>
<stop offset="1" stop-color="#787878"/>
</linearGradient>
<linearGradient id="paint10_linear_109_28" x1="249798" y1="34.0273" x2="249798" y2="46428.6" gradientUnits="userSpaceOnUse">
<stop offset="0.45" stop-color="#ADADAD"/>
<stop offset="1" stop-color="#787878"/>
</linearGradient>
<linearGradient id="paint11_linear_109_28" x1="238970" y1="44.1128" x2="238970" y2="44421.5" gradientUnits="userSpaceOnUse">
<stop offset="0.45" stop-color="#ADADAD"/>
<stop offset="1" stop-color="#787878"/>
</linearGradient>
<linearGradient id="paint12_linear_109_28" x1="228142" y1="54.1987" x2="228142" y2="42414.4" gradientUnits="userSpaceOnUse">
<stop offset="0.45" stop-color="#ADADAD"/>
<stop offset="1" stop-color="#787878"/>
</linearGradient>
<linearGradient id="paint13_linear_109_28" x1="217314" y1="64.2847" x2="217314" y2="40407.4" gradientUnits="userSpaceOnUse">
<stop offset="0.45" stop-color="#ADADAD"/>
<stop offset="1" stop-color="#787878"/>
</linearGradient>
<linearGradient id="paint14_linear_109_28" x1="206485" y1="74.3701" x2="206485" y2="38400.3" gradientUnits="userSpaceOnUse">
<stop offset="0.45" stop-color="#ADADAD"/>
<stop offset="1" stop-color="#787878"/>
</linearGradient>
<linearGradient id="paint15_linear_109_28" x1="195657" y1="84.4561" x2="195657" y2="36393.2" gradientUnits="userSpaceOnUse">
<stop offset="0.45" stop-color="#ADADAD"/>
<stop offset="1" stop-color="#787878"/>
</linearGradient>
<linearGradient id="paint16_linear_109_28" x1="184829" y1="94.542" x2="184829" y2="34386.2" gradientUnits="userSpaceOnUse">
<stop offset="0.45" stop-color="#ADADAD"/>
<stop offset="1" stop-color="#787878"/>
</linearGradient>
<linearGradient id="paint17_linear_109_28" x1="174001" y1="104.627" x2="174001" y2="32379.1" gradientUnits="userSpaceOnUse">
<stop offset="0.45" stop-color="#ADADAD"/>
<stop offset="1" stop-color="#787878"/>
</linearGradient>
<linearGradient id="paint18_linear_109_28" x1="163173" y1="114.713" x2="163173" y2="30372" gradientUnits="userSpaceOnUse">
<stop offset="0.45" stop-color="#ADADAD"/>
<stop offset="1" stop-color="#787878"/>
</linearGradient>
<linearGradient id="paint19_linear_109_28" x1="152345" y1="124.799" x2="152345" y2="28365" gradientUnits="userSpaceOnUse">
<stop offset="0.45" stop-color="#ADADAD"/>
<stop offset="1" stop-color="#787878"/>
</linearGradient>
<linearGradient id="paint20_linear_109_28" x1="141517" y1="134.885" x2="141517" y2="26357.9" gradientUnits="userSpaceOnUse">
<stop offset="0.45" stop-color="#ADADAD"/>
<stop offset="1" stop-color="#787878"/>
</linearGradient>
<linearGradient id="paint21_linear_109_28" x1="130689" y1="144.971" x2="130689" y2="24350.8" gradientUnits="userSpaceOnUse">
<stop offset="0.45" stop-color="#ADADAD"/>
<stop offset="1" stop-color="#787878"/>
</linearGradient>
<linearGradient id="paint22_linear_109_28" x1="119860" y1="155.057" x2="119860" y2="22343.8" gradientUnits="userSpaceOnUse">
<stop offset="0.45" stop-color="#ADADAD"/>
<stop offset="1" stop-color="#787878"/>
</linearGradient>
<linearGradient id="paint23_linear_109_28" x1="109032" y1="165.142" x2="109032" y2="20336.7" gradientUnits="userSpaceOnUse">
<stop offset="0.45" stop-color="#ADADAD"/>
<stop offset="1" stop-color="#787878"/>
</linearGradient>
<linearGradient id="paint24_linear_109_28" x1="98204.1" y1="175.228" x2="98204.1" y2="18329.6" gradientUnits="userSpaceOnUse">
<stop offset="0.45" stop-color="#ADADAD"/>
<stop offset="1" stop-color="#787878"/>
</linearGradient>
<linearGradient id="paint25_linear_109_28" x1="87376" y1="185.314" x2="87376" y2="16322.6" gradientUnits="userSpaceOnUse">
<stop offset="0.45" stop-color="#ADADAD"/>
<stop offset="1" stop-color="#787878"/>
</linearGradient>
<linearGradient id="paint26_linear_109_28" x1="76547.9" y1="195.399" x2="76547.9" y2="14315.5" gradientUnits="userSpaceOnUse">
<stop offset="0.45" stop-color="#ADADAD"/>
<stop offset="1" stop-color="#787878"/>
</linearGradient>
<linearGradient id="paint27_linear_109_28" x1="65719.8" y1="205.485" x2="65719.8" y2="12308.4" gradientUnits="userSpaceOnUse">
<stop offset="0.45" stop-color="#ADADAD"/>
<stop offset="1" stop-color="#787878"/>
</linearGradient>
<linearGradient id="paint28_linear_109_28" x1="54891.6" y1="215.571" x2="54891.6" y2="10301.3" gradientUnits="userSpaceOnUse">
<stop offset="0.45" stop-color="#ADADAD"/>
<stop offset="1" stop-color="#787878"/>
</linearGradient>
<linearGradient id="paint29_linear_109_28" x1="44063.5" y1="225.657" x2="44063.5" y2="8294.27" gradientUnits="userSpaceOnUse">
<stop offset="0.45" stop-color="#ADADAD"/>
<stop offset="1" stop-color="#787878"/>
</linearGradient>
<linearGradient id="paint30_linear_109_28" x1="33235.4" y1="235.743" x2="33235.4" y2="6287.21" gradientUnits="userSpaceOnUse">
<stop offset="0.45" stop-color="#ADADAD"/>
<stop offset="1" stop-color="#787878"/>
</linearGradient>
<linearGradient id="paint31_linear_109_28" x1="22407.3" y1="245.829" x2="22407.3" y2="4280.13" gradientUnits="userSpaceOnUse">
<stop offset="0.45" stop-color="#ADADAD"/>
<stop offset="1" stop-color="#787878"/>
</linearGradient>
<linearGradient id="paint32_linear_109_28" x1="11579.1" y1="255.914" x2="11579.1" y2="2273.07" gradientUnits="userSpaceOnUse">
<stop offset="0.45" stop-color="#ADADAD"/>
<stop offset="1" stop-color="#787878"/>
</linearGradient>
<clipPath id="clip0_109_28">
<rect width="1502" height="572" fill="white"/>
</clipPath>
</defs>
</svg>
