<svg width="2000" height="2000" viewBox="0 0 2000 2000" fill="none" xmlns="http://www.w3.org/2000/svg">
<path d="M0 256C0 114.615 114.615 0 256 0H1744C1885.38 0 2000 114.615 2000 256V1744C2000 1885.38 1885.38 2000 1744 2000H256C114.615 2000 0 1885.38 0 1744V256Z" fill="white"/>
<path d="M177 241C177 205.654 205.654 177 241 177H1759C1794.35 177 1823 205.654 1823 241V1759C1823 1794.35 1794.35 1823 1759 1823H241C205.654 1823 177 1794.35 177 1759V241Z" fill="black"/>
<path d="M177 801.383H1823V1220.56H177V801.383Z" fill="white"/>
<path d="M1208.49 177L1208.49 1823H789.312L789.312 177L1208.49 177Z" fill="white"/>
<path d="M333 345H1665V1677H333V345Z" fill="white"/>
<path d="M240.646 424.153L412.631 252.167L1757.16 1596.7L1585.17 1768.68L240.646 424.153Z" fill="black"/>
<path d="M1585.17 252.168L1757.16 424.153L412.631 1768.68L240.646 1596.7L1585.17 252.168Z" fill="black"/>
<path d="M670.8 1340.17V681.773L1329.2 681.773V1340.17H670.8Z" fill="black"/>
<path d="M727 1306C713.745 1306 703 1295.25 703 1282V738C703 724.745 713.745 714 727 714H1271C1284.25 714 1295 724.745 1295 738V1282C1295 1295.25 1284.25 1306 1271 1306H727Z" fill="white"/>
</svg>
