<?xml version="1.0" standalone="no"?>
<!DOCTYPE svg PUBLIC "-//W3C//DTD SVG 20010904//EN"
 "http://www.w3.org/TR/2001/REC-SVG-20010904/DTD/svg10.dtd">
<svg version="1.0" xmlns="http://www.w3.org/2000/svg"
 width="700.000000pt" height="700.000000pt" viewBox="0 0 700.000000 700.000000"
 preserveAspectRatio="xMidYMid meet">
<metadata>
Created by potrace 1.14, written by Peter Selinger 2001-2017
</metadata>
<g transform="translate(0.000000,700.000000) scale(0.100000,-0.100000)"
fill="#000000" stroke="none">
<path d="M705 6983 c-321 -68 -584 -316 -677 -638 l-23 -80 0 -2765 0 -2765
23 -80 c95 -326 361 -574 687 -639 72 -15 341 -16 2820 -14 l2740 3 75 23
c305 95 535 327 622 627 l23 80 0 2765 0 2765 -23 80 c-87 300 -317 532 -622
627 l-75 23 -2750 2 c-2410 1 -2759 0 -2820 -14z m2073 -901 c9 -7 12 -73 10
-297 l-3 -289 -210 -2 c-518 -6 -536 -6 -551 -21 -10 -10 -11 -20 -5 -31 5 -9
202 -213 438 -453 l428 -437 615 -1 615 -1 438 445 c240 244 437 451 437 459
0 34 5 34 -565 40 l-210 2 -3 283 c-2 201 1 288 9 297 16 20 1826 21 1852 2
16 -12 17 -79 15 -968 l-3 -955 -290 0 -290 0 -5 405 c-5 397 -5 405 -25 408
-15 2 -134 -112 -473 -457 l-452 -459 0 -554 1 -553 452 -459 c347 -352 457
-458 472 -455 20 4 20 14 25 409 l5 405 290 0 290 0 3 -954 c1 -696 -1 -957
-9 -967 -16 -19 -1838 -21 -1857 -2 -15 15 -17 564 -2 573 5 3 175 8 377 11
238 4 373 10 381 16 7 6 12 18 10 26 -2 8 -199 214 -438 458 l-435 443 -612 1
-611 0 -433 -440 c-239 -242 -437 -447 -441 -455 -5 -8 -2 -20 8 -29 13 -13
46 -16 187 -18 95 0 262 -2 372 -3 l200 -3 0 -293 0 -294 -930 0 -930 0 -3
968 -2 967 290 0 290 0 2 -407 3 -408 25 0 c21 0 116 92 473 455 l447 454 0
556 0 555 -451 458 c-265 268 -458 457 -469 457 -10 0 -21 -7 -24 -16 -3 -9
-6 -193 -6 -410 l0 -394 -290 0 -290 0 0 964 c0 762 3 965 13 969 21 9 1831 7
1845 -1z"/>
<path d="M2579 4421 l-29 -29 0 -892 0 -892 29 -29 29 -29 892 0 892 0 29 29
29 29 0 892 0 892 -29 29 -29 29 -892 0 -892 0 -29 -29z"/>
</g>
</svg>
