<svg width="2400" height="1600" viewBox="0 0 2400 1600" fill="none" xmlns="http://www.w3.org/2000/svg">
<g clip-path="url(#clip0_100_13)">
<g opacity="0.23">
<path opacity="0.05" d="M-7.96094 248.78C119.122 267.738 349.956 357.905 602.039 339.78C854.122 321.655 952.039 171.78 1202.04 161.78C1452.04 151.78 1552.04 278.863 1802.04 291.78C2052.04 304.697 2224.96 151.488 2402.04 223.78C2579.12 296.072 3256.21 448.155 2652.04 638.78C2047.87 829.405 158.289 1034.61 -497.961 1138.78" fill="url(#paint0_linear_100_13)"/>
<path opacity="0.53" d="M-7.96094 398.78C119.122 417.738 349.956 507.905 602.039 489.78C854.122 471.655 952.039 321.78 1202.04 311.78C1452.04 301.78 1552.04 428.863 1802.04 441.78C2052.04 454.697 2224.96 301.488 2402.04 373.78C2579.12 446.072 3256.21 598.155 2652.04 788.78C2047.87 979.405 158.289 1184.61 -497.961 1288.78" fill="url(#paint1_linear_100_13)"/>
<path d="M-7.96094 548.78C119.122 567.738 349.956 657.905 602.039 639.78C854.122 621.655 952.039 471.78 1202.04 461.78C1452.04 451.78 1552.04 578.863 1802.04 591.78C2052.04 604.697 2224.96 451.488 2402.04 523.78C2579.12 596.072 3256.21 748.155 2652.04 938.78C2047.87 1129.4 158.289 1334.61 -497.961 1438.78" fill="url(#paint2_linear_100_13)"/>
</g>
</g>
<g clip-path="url(#clip1_100_13)">
<g opacity="0.23">
<path opacity="0.05" d="M2407.96 1351.22C2280.88 1332.26 2050.04 1242.09 1797.96 1260.22C1545.88 1278.34 1447.96 1428.22 1197.96 1438.22C947.961 1448.22 847.961 1321.14 597.961 1308.22C347.961 1295.3 175.044 1448.51 -2.03906 1376.22C-179.122 1303.93 -856.206 1151.84 -252.039 961.22C352.128 770.595 2241.71 565.387 2897.96 461.22" fill="url(#paint3_linear_100_13)"/>
<path opacity="0.53" d="M2407.96 1201.22C2280.88 1182.26 2050.04 1092.09 1797.96 1110.22C1545.88 1128.34 1447.96 1278.22 1197.96 1288.22C947.961 1298.22 847.961 1171.14 597.961 1158.22C347.961 1145.3 175.044 1298.51 -2.03906 1226.22C-179.122 1153.93 -856.206 1001.84 -252.039 811.22C352.128 620.595 2241.71 415.387 2897.96 311.22" fill="url(#paint4_linear_100_13)"/>
<path d="M2407.96 1051.22C2280.88 1032.26 2050.04 942.095 1797.96 960.22C1545.88 978.345 1447.96 1128.22 1197.96 1138.22C947.961 1148.22 847.961 1021.14 597.961 1008.22C347.961 995.303 175.044 1148.51 -2.03906 1076.22C-179.122 1003.93 -856.206 851.845 -252.039 661.22C352.128 470.595 2241.71 265.387 2897.96 161.22" fill="url(#paint5_linear_100_13)"/>
</g>
</g>
<rect y="756" width="2400" height="44" fill="#BCBCBC"/>
<defs>
<linearGradient id="paint0_linear_100_13" x1="169298" y1="161.22" x2="169298" y2="97917.2" gradientUnits="userSpaceOnUse">
<stop/>
<stop offset="1" stop-color="white"/>
</linearGradient>
<linearGradient id="paint1_linear_100_13" x1="169298" y1="311.22" x2="169298" y2="98067.2" gradientUnits="userSpaceOnUse">
<stop/>
<stop offset="1" stop-color="white"/>
</linearGradient>
<linearGradient id="paint2_linear_100_13" x1="169298" y1="461.22" x2="169298" y2="98217.2" gradientUnits="userSpaceOnUse">
<stop/>
<stop offset="1" stop-color="white"/>
</linearGradient>
<linearGradient id="paint3_linear_100_13" x1="-166898" y1="1438.78" x2="-166898" y2="-96317.2" gradientUnits="userSpaceOnUse">
<stop/>
<stop offset="1" stop-color="white"/>
</linearGradient>
<linearGradient id="paint4_linear_100_13" x1="-166898" y1="1288.78" x2="-166898" y2="-96467.2" gradientUnits="userSpaceOnUse">
<stop/>
<stop offset="1" stop-color="white"/>
</linearGradient>
<linearGradient id="paint5_linear_100_13" x1="-166898" y1="1138.78" x2="-166898" y2="-96617.2" gradientUnits="userSpaceOnUse">
<stop/>
<stop offset="1" stop-color="white"/>
</linearGradient>
<clipPath id="clip0_100_13">
<rect width="2400" height="800" fill="white"/>
</clipPath>
<clipPath id="clip1_100_13">
<rect width="2400" height="800" fill="white" transform="matrix(-1 0 0 -1 2400 1600)"/>
</clipPath>
</defs>
</svg>
